<svg width="46" height="40" viewBox="0 0 46 40" fill="none" xmlns="http://www.w3.org/2000/svg">
<path d="M45.8758 20.8003V31.1437C45.8721 31.7888 45.701 32.4218 45.3794 32.9809C45.0577 33.54 44.5965 34.0061 44.0407 34.3336L35.0807 39.4946C34.5257 39.8254 33.8917 40 33.2456 40C32.5996 40 31.9655 39.8254 31.4106 39.4946L22.4505 34.3336C21.8947 34.0061 21.4335 33.54 21.1118 32.9809C20.7903 32.4218 20.6192 31.7888 20.6155 31.1437V28.2407L25.203 25.5778V30.6241L33.2313 35.2833L41.2595 30.6241V21.327L33.2313 16.6678L14.4222 27.5633C13.8621 27.8789 13.2301 28.0447 12.5872 28.0447C11.9443 28.0447 11.3123 27.8789 10.7522 27.5633L1.79201 22.3808C1.24484 22.0483 0.792499 21.5806 0.478549 21.0224C0.164695 20.4644 -9.52683e-05 19.8349 4.13196e-08 19.1946V8.85102C0.00371711 8.20596 0.174798 7.57301 0.496467 7.01383C0.818042 6.45475 1.27934 5.98868 1.83499 5.6612L10.7951 0.500184C11.3513 0.1727 11.9848 0 12.6301 0C13.2756 0 13.9091 0.1727 14.4652 0.500184L23.4254 5.6612C23.981 5.98868 24.4423 6.45475 24.7639 7.01383C25.0856 7.57301 25.2567 8.20596 25.2604 8.85102V11.7541L20.6441 14.3991V9.38142L12.6158 4.72221L4.58754 9.38142V18.6677L12.6158 23.327L31.4249 12.4315C31.985 12.1158 32.617 11.9501 33.26 11.9501C33.9029 11.9501 34.5349 12.1158 35.095 12.4315L44.0551 17.614C44.6076 17.943 45.0657 18.4092 45.3847 18.9676C45.7038 19.5259 45.873 20.1572 45.8758 20.8003Z" fill="#BBBBBB"/>
</svg>
